<svg width="32" height="32" viewBox="0 0 32 32" fill="none" xmlns="http://www.w3.org/2000/svg">
<rect width="32" height="32" rx="16" fill="#F7931A"/>
<path d="M21.037 13.9219C21.437 13.5119 21.647 12.9819 21.647 12.3319C21.647 11.7119 21.447 11.1919 21.047 10.7719C20.647 10.3519 20.127 10.1419 19.487 10.1419H14.887V7.14185H13.117V10.1419H11.737V7.14185H9.96704V10.1419H9.25704V11.9119H9.96704V20.0819H9.25704V21.8519H9.96704V24.8519H11.737V21.8519H13.117V24.8519H14.887V21.8519H19.787C20.407 21.8519 20.927 21.6419 21.347 21.2219C21.767 20.8019 21.977 20.2619 21.977 19.6019C21.977 18.8119 21.677 18.1719 21.077 17.6819C21.677 17.2019 21.977 16.5719 21.977 15.7919C21.977 15.0419 21.687 14.4319 21.037 13.9219ZM18.817 19.8219H14.887V17.7619H18.817C19.267 17.7619 19.617 17.8819 19.867 18.1219C20.117 18.3619 20.247 18.7019 20.247 19.1419C20.247 19.6119 20.087 19.9519 19.767 20.1619C19.447 20.0119 19.157 19.9019 18.817 19.8219ZM18.597 15.9919H14.887V11.9119H18.597C19.047 11.9119 19.397 12.0319 19.647 12.2719C19.897 12.5119 20.027 12.8519 20.027 13.2919C20.027 13.7819 19.877 14.1519 19.577 14.4019C19.277 14.6519 18.897 14.7719 18.437 14.7719V15.9919Z" fill="white"/>
</svg>
