<svg width="32" height="32" viewBox="0 0 32 32" fill="none" xmlns="http://www.w3.org/2000/svg">
<rect width="32" height="32" rx="16" fill="#8247E5"/>
<path d="M16.0001 5.3335C10.1068 5.3335 5.33341 10.1068 5.33341 16.0002C5.33341 21.8935 10.1068 26.6668 16.0001 26.6668C21.8934 26.6668 26.6667 21.8935 26.6667 16.0002C26.6667 10.1068 21.8934 5.3335 16.0001 5.3335ZM18.7334 16.0002L16.0001 17.7335L13.2667 16.0002L16.0001 14.2668L18.7334 16.0002ZM19.2001 11.4668L16.0001 13.3335L12.8001 11.4668L16.0001 9.60016L19.2001 11.4668ZM12.8001 20.5335L16.0001 22.4002L19.2001 20.5335L16.0001 18.6668L12.8001 20.5335Z" fill="white"/>
</svg>
