<svg xmlns="http://www.w3.org/2000/svg" width="32" height="32" viewBox="0 0 32 32" fill="none">
<circle cx="16" cy="16" r="16" fill="#FF4B22"/>
<path d="M16.0002 9.6001C18.122 9.6001 19.8402 11.3183 19.8402 13.4401C19.8402 15.5619 18.122 17.2801 16.0002 17.2801C13.8784 17.2801 12.1602 15.5619 12.1602 13.4401C12.1602 11.3183 13.8784 9.6001 16.0002 9.6001ZM16.0002 18.2401C19.2066 18.2401 21.7602 15.6865 21.7602 12.4801C21.7602 9.27369 19.2066 6.7201 16.0002 6.7201C12.7938 6.7201 10.2402 9.27369 10.2402 12.4801C10.2402 15.6865 12.7938 18.2401 16.0002 18.2401Z" fill="white"/>
<path d="M18.88 19.2H13.12V25.28H18.88V19.2Z" fill="white"/>
</svg>
