<svg width="32" height="32" viewBox="0 0 32 32" fill="none" xmlns="http://www.w3.org/2000/svg">
<rect width="32" height="32" rx="16" fill="#23292F"/>
<path d="M16.0396 11.5332L12.3396 14.3332L16.0396 17.1332L19.7396 14.3332L16.0396 11.5332ZM11.1396 9.86654L7.4396 12.6665L9.9396 14.6665L11.1396 9.86654ZM20.9396 9.86654L19.7396 14.6665L22.2396 12.6665L20.9396 9.86654ZM5.2396 14.9332L8.9396 17.7332L5.2396 20.5332L1.5396 17.7332L5.2396 14.9332ZM11.1396 22.2665L9.9396 17.4665L7.4396 19.4665L11.1396 22.2665ZM20.9396 22.2665L24.6396 19.4665L22.2396 17.4665L20.9396 22.2665ZM16.0396 18.2665L12.3396 21.0665L16.0396 23.8665L19.7396 21.0665L16.0396 18.2665ZM26.8396 14.9332L23.1396 17.7332L26.8396 20.5332L30.5396 17.7332L26.8396 14.9332Z" fill="white"/>
</svg>
